<svg xmlns="http://www.w3.org/2000/svg" width="48" height="48" viewBox="0 0 48 48"><path d="M26.05,13.693c0-.049.083-.158.25-.325s.275-.25.325-.25a1.451,1.451,0,0,1,.425.225,7.748,7.748,0,0,0,3.125,1.15,6.8,6.8,0,0,0,1.2.075,7.893,7.893,0,0,0,3.075-.65.992.992,0,0,1,.4-.149.244.244,0,0,1,.25.224,1.5,1.5,0,0,1-.1.35,7.265,7.265,0,0,0-.675,3.15,8.179,8.179,0,0,0,1.2,4.325,1.44,1.44,0,0,1,.226.425c0,.05-.084.158-.25.325s-.275.25-.325.25q-.175,0-.45-.424a8.805,8.805,0,0,1-1.375-4.8v-.65a1.869,1.869,0,0,1,.1-.775L32.3,17.293q-1.125,1.125-3.975,3.963T23.55,26.019q-9.876,9.874-9.975,9.924a.79.79,0,0,1-.2.05.469.469,0,0,1-.351-.162.526.526,0,0,1-.149-.363.362.362,0,0,1,.024-.15q.051-.1,9.926-10,6.35-6.375,8.113-8.137t1.737-1.763a7.262,7.262,0,0,1-1.5.125q-.4,0-.9-.05a9.45,9.45,0,0,1-3.8-1.349C26.191,13.96,26.05,13.81,26.05,13.693Z" style="fill:#404040"/></svg>